PathFileType	4	(X/Y/Z)	C:/Users/beibeiliu/ov580/test_trc/User1\sequence.32_training_dense_right.trc
DataRate	CameraRate	NumFrames	NumMarkers	Units	OrigDataRate	OrigDataStartFrame	OrigNumFrames
120	120	20	19	mm	120	113	224
Frame#	Time	ThumbCMC			ThumbMCP			ThumbIP			ThumbTip			IndexMCP			IndexPIP			IndexTip			MiddleMCP			MiddlePIP			MiddleTip			RingMCP			RingPIP			RingTip			PinkyMCP			PinkyPIP			PinkyTip			BackHand1			BackHand2			BackHand3	
		X0	Y0	Z0	X1	Y1	Z1	X2	Y2	Z2	X3	Y3	Z3	X4	Y4	Z4	X5	Y5	Z5	X6	Y6	Z6	X7	Y7	Z7	X8	Y8	Z8	X9	Y9	Z9	X10	Y10	Z10	X11	Y11	Z11	X12	Y12	Z12	X13	Y13	Z13	X14	Y14	Z14	X15	Y15	Z15	X16	Y16	Z16	X17	Y17	Z17	X18	Y18	Z18	
112	0.933333	118.524	-6.67227	88.1004	95.7521	-20.9763	74.0768	77.7136	-32.0015	58.384	61.1157	-44.105	45.4351	112.69	-63.9404	23.2299	112.25	-98.4221	31.906	116.984	-106.144	61.1158	136.37	-78.1917	20.1882	134.697	-105.929	33.4632	129.801	-115.745	72.0675	161.912	-79.7547	22.7594	154.739	-110.333	34.5877	148.504	-122.781	64.5839	195.346	-67.4712	33.961	203.089	-85.7919	24.793	208.209	-102.966	9.11616	176.122	-19.6987	44.4754	182.414	2.16351	72.2328	144.446	-2.65342	62.1812	
113	0.941667	118.786	-7.95844	90.4049	93.3124	-21.1181	78.6149	77.3758	-35.2469	55.9772	62.5953	-45.6933	48.6105	115.547	-69.2387	22.7229	108.033	-99.1492	26.3171	115.629	-124.395	53.1952	143.283	-81.5127	21.1413	135.738	-115.599	32.4808	131.245	-133.287	57.0036	163.629	-85.1572	24.873	161.692	-116.482	30.9973	150.059	-137.239	53.7176	197.166	-76.6447	35.2336	200.78	-92.9202	25.2536	210.272	-106.353	13.3149	176.447	-27.1887	46.9319	183.018	-2.72509	76.4576	146.338	-6.42898	64.3236	
114	0.95	120.751	-14.2832	89.1557	97.9926	-25.9613	79.0832	82.989	-39.0076	60.8939	64.9585	-49.0383	46.7755	114.695	-75.808	25.9713	109.45	-105.901	26.2132	112.355	-134.54	37.5336	144.947	-89.4741	21.4319	135.202	-115.408	26.934	130.412	-144.756	40.8269	164.952	-90.4946	25.0601	162.48	-122.053	26.3869	157.904	-143.614	36.4826	199.846	-80.0552	38.7326	203.894	-98.1332	28.9801	211.712	-111.008	16.2547	180.963	-29.596	51.4385	182.909	-8.1399	72.2896	147.211	-11.3885	65.5102	
115	0.958333	123.638	-16.1486	93.2044	97.9768	-27.9523	80.0983	81.4251	-39.5714	62.2841	67.3341	-51.6394	50.1797	120.145	-80.9809	27.2351	110.853	-109.617	25.5412	106.777	-139.207	28.0813	145.03	-93.3683	22.6458	140.282	-124.067	23.1504	131.74	-153.293	25.2985	172.295	-93.3979	28.4176	164.728	-121.09	22.8657	163.069	-147.517	23.9132	198.881	-86.09	39.7301	203.416	-103.365	30.4364	210.842	-115.264	15.071	182.068	-35.7082	53.7417	186.452	-12.9029	76.2416	152.643	-16.7529	61.9638	
116	0.966667	128.917	-21.7541	89.204	100.681	-31.4641	78.497	80.84	-41.5659	60.9926	67.3154	-49.4479	53.9609	121.002	-85.7426	27.6605	109.623	-112.697	23.1266	109.701	-140.641	18.0436	145.444	-98.7343	21.5714	143.371	-126.274	18.3257	139.302	-152.137	11.3927	171.387	-100.56	25.9167	170.04	-122.923	17.6303	166.557	-145.766	12.81	199.614	-90.1757	39.4865	205.756	-103.102	33.3851	211.834	-119.598	13.6729	182.028	-43.2857	50.9635	189.045	-14.5098	76.1962	152.69	-18.9799	63.8676	
117	0.975	130.947	-25.4357	88.7543	101.698	-31.762	79.576	86.1563	-45.7881	61.6682	64.4346	-50.1874	52.3601	117.816	-89.6384	25.3476	110.342	-111.782	19.4818	108.054	-137.566	9.64774	148.463	-100.018	18.373	142.914	-120.495	12.8075	140.494	-149.082	-1.11654	175.705	-101.448	23.1612	171.21	-122.183	12.0691	166.721	-144.835	-1.92236	204.265	-95.8755	39.8594	207.672	-106.282	32.1333	214.982	-121.494	10.8892	183.358	-47.6494	51.6218	194.754	-22.8157	76.7268	154.833	-27.8944	60.6514	
118	0.983333	130.632	-26.1546	89.5519	104.19	-38.0899	75.9878	84.6444	-46.4244	63.0787	66.3122	-52.9858	52.1126	121.732	-87.7382	23.8502	112.874	-110.234	13.7059	107.892	-134.83	1.33656	150.664	-97.6462	15.8245	145.045	-119.918	4.4539	145.113	-145.188	-12.8554	177.471	-103.08	17.8538	174.352	-122.371	2.13723	168.34	-137.856	-12.4403	203.481	-95.0716	41.5958	212.423	-111.952	28.4429	215.715	-118.574	10.6087	187.593	-49.7369	52.7689	196.01	-27.2498	75.7234	157.725	-30.8952	59.2119	
119	0.991667	131.388	-32.1544	88.3168	104.566	-40.5637	76.9154	87.4055	-50.2414	61.9786	67.5495	-56.2892	53.2871	123.952	-87.8775	21.4746	118.162	-111.641	6.73818	113.172	-132.546	-6.68432	152.771	-99.1049	8.76772	147.93	-118.765	-4.63187	149.093	-139.365	-21.6942	176.699	-97.7212	16.5261	176.537	-117.405	-4.57066	171.498	-131.174	-18.8591	206.558	-96.134	40.5506	210.395	-110.779	23.845	216.829	-115.313	4.74555	186.756	-53.1415	54.4373	193.455	-30.2559	72.7549	155.968	-34.4976	61.5612	
120	1	131.035	-34.2654	88.3239	103.363	-42.8311	74.1752	86.8475	-53.6523	59.4215	67.8142	-57.6805	51.834	126.863	-91.8814	14.415	118.638	-109.082	0.512894	117.537	-129.172	-14.5264	152.318	-96.4665	3.97934	151.763	-112.981	-10.9957	149.628	-132.645	-34.1321	179.647	-95.336	12.4423	179.883	-108.896	-8.64574	177.801	-123.107	-28.2103	207.35	-96.417	36.81	211.905	-105.763	22.6671	219.037	-109.08	-0.752364	185.771	-57.221	49.8191	193.971	-30.2099	75.1344	158.011	-35.8752	59.6175	
121	1.00833	131.694	-37.9666	86.9106	106.69	-45.6319	79.1905	87.0528	-55.5656	56.9064	67.8542	-58.2069	50.6904	130.306	-87.3967	12.605	119.124	-107.134	-7.00709	118.275	-127.016	-24.9893	159.561	-90.2497	2.38822	152.879	-105.348	-18.9209	152.471	-125.558	-46.4338	184.553	-90.5513	8.13682	182.797	-102.526	-17.0473	177.351	-112.219	-39.1759	208.384	-95.0866	30.6763	212.044	-101.205	15.8287	222.169	-101.445	-5.86656	188.647	-57.3818	48.9834	197.423	-36.1378	73.9424	161.789	-40.5781	59.1497	
122	1.01667	131.945	-40.3492	86.3023	106.333	-47.9289	76.9656	89.2396	-56.1391	57.3908	71.353	-60.2508	45.5582	129.176	-83.8441	7.19822	122.321	-100.703	-13.8063	119.842	-116.786	-28.6985	159.491	-82.4088	-1.15321	156.962	-96.3516	-24.9079	152.453	-110.116	-54.2498	186.215	-84.7904	3.22292	184.297	-91.2579	-21.7026	184.109	-98.9688	-45.8431	207.238	-92.0079	23.9819	213.664	-96.0023	12.0446	227.325	-95.354	-10.8774	192.196	-56.7874	46.4454	200.348	-35.5878	76.7222	159.325	-36.4574	62.1233	
123	1.025	134.528	-42.7873	88.8381	107.193	-50.0936	73.6527	92.9977	-56.5707	57.4206	69.4171	-57.6251	47.7347	132.132	-76.9054	4.39222	125.588	-90.0477	-16.7957	124.897	-109.274	-41.4109	163.608	-75.2114	-5.8262	158.192	-84.1203	-32.358	155.334	-92.7484	-59.6996	188.231	-77.2064	-1.07581	187.13	-80.4997	-24.3882	189.203	-84.888	-47.323	213.649	-86.2568	25.0475	222.439	-91.2633	5.83603	230.951	-85.1109	-12.2881	195.44	-55.2555	47.6195	200.614	-35.5478	76.5821	162.071	-38.3493	62.9664	
124	1.03333	139.32	-46.2451	86.2988	113.75	-51.0549	74.6221	93.5613	-55.3856	54.9533	75.6894	-58.1217	43.6225	136.348	-70.0265	-0.550234	131.052	-80.4826	-22.4925	127.499	-93.1907	-45.4036	164.208	-66.0279	-10.3983	165.604	-71.286	-31.9976	164.219	-74.794	-64.3292	194.721	-71.6702	-0.970566	195.651	-70.6165	-24.8666	193.959	-70.5907	-50.536	219.398	-84.1171	19.7417	226.683	-86.7691	4.04766	233.526	-79.858	-13.5816	195.962	-55.0653	47.3869	200.484	-36.7867	78.8745	164.045	-37.6561	62.9764	
125	1.04167	142.839	-45.0409	86.7369	115.055	-49.2511	71.3195	98.5317	-52.1924	53.5547	78.9321	-51.3509	40.6406	143.463	-60.5717	0.702786	136.712	-66.9346	-23.4401	135.373	-76.6241	-52.0414	175.005	-59.21	-9.1037	168.632	-58.8942	-36.7114	173.514	-58.6612	-66.6729	196.916	-65.5382	-2.21099	203.135	-63.5052	-28.0401	201.779	-61.4765	-48.34	218.389	-82.1466	20.4962	227.102	-83.5598	6.53623	238.404	-76.755	-11.8153	204.271	-52.3813	46.8877	207.817	-41.0775	78.8508	169.936	-37.4848	62.6323	
126	1.05	147.681	-44.6979	84.1111	122.137	-46.1461	69.9336	103.257	-44.3655	49.6032	87.4078	-45.2876	38.3727	149.66	-51.6739	-0.779487	148.366	-56.227	-29.2749	149.741	-60.6392	-54.0288	183.377	-52.6506	-11.918	181.748	-51.5854	-36.0422	186.627	-47.9224	-62.6827	208.175	-62.7138	-3.00611	209.952	-59.2304	-24.7155	216.266	-55.0732	-49.1289	225.936	-82.5401	21.3107	236.997	-85.6506	6.90041	246.753	-76.664	-11.7486	206.663	-52.0517	47.9471	215.473	-43.5993	81.1334	177.528	-34.4236	61.9881	
127	1.05833	152.731	-39.9259	82.9059	129.752	-40.9841	64.2506	111.291	-37.8749	47.6202	94.2325	-34.4481	33.2275	162.844	-45.7498	-3.96257	155.75	-44.3102	-29.5256	158.222	-45.3616	-55.6369	190.264	-46.7346	-9.38834	194.127	-45.3954	-36.2348	199.242	-37.7284	-62.9441	212.303	-59.892	-0.677174	221.898	-55.7066	-26.0667	227.875	-53.326	-46.0305	233.383	-84.7322	18.5252	242.197	-87.9371	3.8198	256.136	-81.0919	-9.93991	214.554	-55.9932	48.7132	216.896	-47.4779	86.2918	187.073	-36.5303	66.7472	
128	1.06667	156.635	-34.1918	83.246	135.816	-34.2506	65.3293	120.014	-29.0277	42.227	101.526	-20.7033	27.5313	171.024	-37.6647	-5.23614	171.091	-38.9946	-27.1436	173.371	-37.7095	-52.9261	201.109	-45.7122	-6.05049	204.478	-39.3743	-34.4976	214.094	-32.993	-61.9486	220.645	-60.2144	-0.871983	230.265	-56.5274	-23.6133	237.803	-52.6767	-46.6978	235.111	-91.1794	19.6142	240.821	-92.0054	6.7814	254.027	-88.8292	-9.7678	219.12	-60.0286	48.9086	225.034	-52.7159	84.7755	194.153	-36.3385	67.4682	
129	1.075	166.095	-31.0187	77.1096	144.577	-23.7814	57.9513	129.495	-14.4465	37.8019	114.757	-6.73357	25.8655	186.006	-34.5543	-9.46567	183.397	-30.9762	-29.1411	189.801	-30.6404	-53.9258	213.171	-43.7657	-9.51053	220.778	-41.5357	-33.7604	229.384	-33.0399	-60.9175	226.899	-65.546	1.94763	237.61	-63.8483	-18.4083	249.321	-60.7512	-44.3586	229.239	-94.2025	21.2428	242.812	-103.734	5.36291	258.117	-102.516	-8.6536	222.441	-63.7356	51.3112	224.263	-58.7128	87.6693	201.86	-34.4474	65.3091	
130	1.08333	175.442	-24.7949	75.9233	154.288	-11.4393	52.694	144.806	-2.97497	30.5198	132.099	7.59544	19.4793	197.657	-31.1867	-8.30354	196.79	-27.0659	-31.0019	207.287	-30.0082	-54.3371	224.999	-51.6464	-10.2322	232.144	-46.4904	-35.2123	243.488	-43.33	-57.6982	231.587	-73.7799	1.38928	243.422	-71.5653	-21.2864	255.709	-70.0561	-43.8292	225.942	-100.046	17.1459	234.45	-109.332	7.13635	253.365	-110.017	-9.62513	223.974	-66.8611	50.3535	227.465	-68.7335	85.9921	210.011	-38.137	63.0031	
131	1.09167	184.69	-19.9664	69.7799	166.115	-6.63382	52.9528	158.516	10.0852	28.4021	150.706	22.0742	19.2996	206.314	-27.6662	-7.80388	210.17	-27.3045	-31.3204	217.334	-26.8951	-55.409	227.325	-56.0675	-6.79838	239.515	-53.5703	-36.1238	255.049	-56.1265	-58.8804	229.423	-79.9183	2.26588	243.084	-80.064	-21.088	256.167	-83.1359	-44.4734	219.714	-105.067	17.9484	226.942	-115.322	1.52187	242.783	-120.571	-9.94827	222.062	-71.7411	51.3017	227.522	-71.1866	80.9167	217.248	-39.9685	59.3071	
